<?xml version="1.0" encoding="UTF-8"?><!DOCTYPE svg PUBLIC "-//W3C//DTD SVG 1.1//EN" "http://www.w3.org/Graphics/SVG/1.1/DTD/svg11.dtd"><svg xmlns="http://www.w3.org/2000/svg" xmlns:xlink="http://www.w3.org/1999/xlink"><symbol id="icon-accordion-arrow" viewBox="0 0 11 7">
<path d="M1 1L5.5 5.5L10 1" stroke="white"/>
</symbol><symbol id="icon-swiper-arrow-next" viewBox="0 0 11 8">
<path d="M10.3536 3.64645C10.5488 3.84171 10.5488 4.15829 10.3536 4.35355L7.17157 7.53553C6.97631 7.7308 6.65973 7.7308 6.46447 7.53553C6.2692 7.34027 6.2692 7.02369 6.46447 6.82843L9.29289 4L6.46447 1.17157C6.2692 0.976311 6.2692 0.659728 6.46447 0.464466C6.65973 0.269204 6.97631 0.269204 7.17157 0.464466L10.3536 3.64645ZM0 3.5L10 3.5V4.5L0 4.5L0 3.5Z" fill="white"/>
</symbol><symbol id="icon-swiper-arrow-prev" viewBox="0 0 11 8">
<path d="M0.646446 3.64645C0.451184 3.84171 0.451184 4.15829 0.646446 4.35355L3.82843 7.53553C4.02369 7.7308 4.34027 7.7308 4.53553 7.53553C4.7308 7.34027 4.7308 7.02369 4.53553 6.82843L1.70711 4L4.53553 1.17157C4.7308 0.976311 4.7308 0.659728 4.53553 0.464466C4.34027 0.269204 4.02369 0.269204 3.82843 0.464466L0.646446 3.64645ZM11 3.5L1 3.5V4.5L11 4.5V3.5Z" fill="white"/>
</symbol><symbol id="icon-swiper-city"><path fill-rule="evenodd" clip-rule="evenodd" d="M15.978 5.231C13.775 3.613 8.571 0 6 0a6 6 0 100 12c2.571 0 7.775-3.613 9.978-5.231a.948.948 0 000-1.538zM9 6a3 3 0 10-6 0 3 3 0 006 0z" fill="#00B455"/></symbol><symbol id="icon-swiper__content-arrow-right" viewBox="0 0 9 8">
<path d="M-1.31134e-07 4L7.99998 3.9836M7.99998 3.9836L5.02145 0.989706M7.99998 3.9836L5.02145 6.98971"/>
</symbol></svg>